<svg xmlns="http://www.w3.org/2000/svg" viewBox="0 0 112 112"><title>Artboard 1</title><g id="Layer_3" data-name="Layer 3"><rect width="112" height="112" style="fill:#249cff"/></g><g id="Layer_1" data-name="Layer 1"><text transform="translate(8.63 68.7) scale(1.03 1)" style="font-size:69px;fill:#fff;font-family:AvenirNext-Bold, Avenir Next;font-weight:700">Bit</text></g><g id="Layer_2" data-name="Layer 2"><path d="M29.17,96.81a12.13,12.13,0,0,1-.92-15.89,11.87,11.87,0,0,1,9.82-4.77c2.11,0,4.23.06,6.34.12a2.6,2.6,0,0,1-.2,5.19c-1.27,0-2.54,0-3.81-.07-.8,0-1.6,0-2.4,0a7,7,0,0,0-.18,14q6.74.15,13.48.25a6.93,6.93,0,0,0,7.15-6.75,2.65,2.65,0,0,1,3.13-2.6,2.57,2.57,0,0,1,2.08,2.48,11.57,11.57,0,0,1-2.35,7.08,12,12,0,0,1-10.21,5q-6.83-.1-13.64-.26A12,12,0,0,1,29.17,96.81Z" style="fill:#fff"/><path d="M82.88,80.59a12.13,12.13,0,0,1,.88,15.82,11.85,11.85,0,0,1-9.82,4.78c-2.11,0-4.22,0-6.33-.12a2.59,2.59,0,0,1-2.18-3.83,2.52,2.52,0,0,1,2.4-1.35l4.53.08c.57,0,1.14,0,1.72,0a6.72,6.72,0,0,0,6.23-3.87,6.63,6.63,0,0,0-.63-7.28A6.92,6.92,0,0,0,73.86,82c-4.4-.06-8.8-.16-13.2-.23a6.93,6.93,0,0,0-7.11,6.73A2.64,2.64,0,0,1,50,91a2.57,2.57,0,0,1-1.68-2.38,11.51,11.51,0,0,1,2-6.51,11.89,11.89,0,0,1,10.51-5.53c4.58,0,9.16.14,13.74.25A11.93,11.93,0,0,1,82.88,80.59Z" style="fill:#fff"/></g></svg>